<svg width="214" height="213" viewBox="0 0 214 213" fill="none" xmlns="http://www.w3.org/2000/svg">
<g clip-path="url(#clip0_249_80)">
<path fill-rule="evenodd" clip-rule="evenodd" d="M139.177 90.0768C140.316 90.5943 141.014 91.7638 140.929 93.0115L138.993 121.464C138.881 123.117 137.45 124.366 135.797 124.253C134.143 124.141 132.895 122.709 133.007 121.056L134.4 100.587L95.863 139.123C94.6914 140.295 92.7919 140.295 91.6204 139.123C90.4488 137.952 90.4488 136.052 91.6204 134.881L135.815 90.6865C136.699 89.8022 138.039 89.5593 139.177 90.0768ZM122.38 73.0089C123.551 74.1804 123.551 76.0799 122.38 77.2515L78.1853 121.446C77.301 122.33 75.961 122.573 74.8225 122.055C73.684 121.538 72.986 120.368 73.0709 119.121L75.0066 90.6685C75.1191 89.0155 76.5503 87.7666 78.2033 87.8791C79.8564 87.9915 81.1053 89.4227 80.9928 91.0758L79.6002 111.546L118.137 73.0089C119.308 71.8373 121.208 71.8373 122.38 73.0089Z" fill="#FFF500"/>
<path fill-rule="evenodd" clip-rule="evenodd" d="M149.07 63.99C141.697 56.5945 132.499 51.2803 122.41 48.5865C120.809 48.1591 119.858 46.5149 120.285 44.9141C120.713 43.3134 122.357 42.3622 123.958 42.7896C135.069 45.7561 145.197 51.6082 153.317 59.7522C178.895 85.3324 178.895 126.802 153.315 152.382C127.735 177.962 86.2645 177.962 60.6845 152.382C35.1044 126.802 35.1044 85.3306 60.6845 59.7506C69.1148 51.3203 79.2885 45.6575 90.043 42.7893C91.6439 42.3624 93.2878 43.3141 93.7147 44.915C94.1417 46.5159 93.19 48.1598 91.5891 48.5867C81.8287 51.1898 72.5923 56.328 64.9271 63.9932C41.6902 87.2301 41.6902 124.902 64.9271 148.139C88.164 171.376 125.836 171.376 149.073 148.139C172.31 124.902 172.31 87.2301 149.073 63.9932L149.07 63.99Z" fill="#FFF500"/>
</g>
<defs>
<clipPath id="clip0_249_80">
<rect width="150" height="150" fill="white" transform="translate(107) rotate(45)"/>
</clipPath>
</defs>
</svg>
